<svg xmlns="http://www.w3.org/2000/svg" viewBox="0 0 300 600" fill="none">
  <!-- C2-C4 (Back of head/neck) -->
  <path d="M 128 20 Q 150 10 172 20 Q 180 35 172 50 Q 150 65 128 50 Q 120 35 128 20" 
        stroke="#FF6B6B" stroke-width="1" fill="#FF6B6B" opacity="0.15"/>
  <text x="150" y="40" font-size="10" fill="#FF6B6B" text-anchor="middle">C2-C4</text>
  
  <!-- C5 (Upper back/shoulders) -->
  <path d="M 95 95 Q 100 85 110 90 L 120 105 Q 115 115 105 110 Z" 
        stroke="#FFA07A" stroke-width="1" fill="#FFA07A" opacity="0.15"/>
  <text x="108" y="103" font-size="8" fill="#FFA07A" text-anchor="middle">C5</text>
  
  <path d="M 205 95 Q 200 85 190 90 L 180 105 Q 185 115 195 110 Z" 
        stroke="#FFA07A" stroke-width="1" fill="#FFA07A" opacity="0.15"/>
  <text x="192" y="103" font-size="8" fill="#FFA07A" text-anchor="middle">C5</text>
  
  <!-- T1-T12 (Upper/Mid/Lower back) -->
  <path d="M 135 90 L 130 130 L 165 130 L 160 90 Z" 
        stroke="#87CEEB" stroke-width="1" fill="#87CEEB" opacity="0.15"/>
  <text x="147" y="113" font-size="8" fill="#87CEEB" text-anchor="middle">T1-T4</text>
  
  <path d="M 130 130 L 125 170 L 170 170 L 165 130 Z" 
        stroke="#4682B4" stroke-width="1" fill="#4682B4" opacity="0.15"/>
  <text x="147" y="153" font-size="8" fill="#4682B4" text-anchor="middle">T5-T8</text>
  
  <path d="M 125 170 L 130 210 L 165 210 L 170 170 Z" 
        stroke="#6495ED" stroke-width="1" fill="#6495ED" opacity="0.15"/>
  <text x="147" y="193" font-size="8" fill="#6495ED" text-anchor="middle">T9-T12</text>
  
  <!-- L1-L5 (Lumbar) -->
  <path d="M 130 210 L 135 245 L 160 245 L 165 210 Z" 
        stroke="#DDA0DD" stroke-width="1" fill="#DDA0DD" opacity="0.15"/>
  <text x="147" y="230" font-size="8" fill="#DDA0DD" text-anchor="middle">L1-L3</text>
  
  <path d="M 135 245 L 140 270 L 155 270 L 160 245 Z" 
        stroke="#DA70D6" stroke-width="1" fill="#DA70D6" opacity="0.15"/>
  <text x="147" y="260" font-size="8" fill="#DA70D6" text-anchor="middle">L4-L5</text>
  
  <!-- S1-S5 (Sacral/Buttocks) -->
  <path d="M 140 270 L 138 290 L 162 290 L 160 270 Z" 
        stroke="#FF69B4" stroke-width="1" fill="#FF69B4" opacity="0.15"/>
  <text x="150" y="282" font-size="8" fill="#FF69B4" text-anchor="middle">S1-S3</text>
  
  <!-- S1 (Posterior thigh) -->
  <path d="M 138 290 L 136 370 L 143 370 L 142 290 Z" 
        stroke="#FFB6C1" stroke-width="1" fill="#FFB6C1" opacity="0.15"/>
  <text x="139" y="335" font-size="8" fill="#FFB6C1" text-anchor="middle">S1</text>
  
  <path d="M 162 290 L 164 370 L 157 370 L 158 290 Z" 
        stroke="#FFB6C1" stroke-width="1" fill="#FFB6C1" opacity="0.15"/>
  <text x="161" y="335" font-size="8" fill="#FFB6C1" text-anchor="middle">S1</text>
  
  <!-- L5/S1 (Posterior leg/calf) -->
  <path d="M 136 370 L 135 450 L 142 450 L 143 370 Z" 
        stroke="#FFC0CB" stroke-width="1" fill="#FFC0CB" opacity="0.15"/>
  <text x="138" y="415" font-size="8" fill="#FFC0CB" text-anchor="middle">L5</text>
  
  <path d="M 164 370 L 165 450 L 158 450 L 157 370 Z" 
        stroke="#FFC0CB" stroke-width="1" fill="#FFC0CB" opacity="0.15"/>
  <text x="162" y="415" font-size="8" fill="#FFC0CB" text-anchor="middle">L5</text>
  
  <!-- S1 (Heel) -->
  <path d="M 135 490 L 130 525 L 145 525 L 142 490 Z" 
        stroke="#FFE4E1" stroke-width="1" fill="#FFE4E1" opacity="0.15"/>
  <text x="137" y="510" font-size="8" fill="#FFE4E1" text-anchor="middle">S1</text>
  
  <path d="M 165 490 L 170 525 L 155 525 L 158 490 Z" 
        stroke="#FFE4E1" stroke-width="1" fill="#FFE4E1" opacity="0.15"/>
  <text x="163" y="510" font-size="8" fill="#FFE4E1" text-anchor="middle">S1</text>
</svg>
