<svg xmlns="http://www.w3.org/2000/svg" viewBox="0 0 300 600" fill="none">
  <!-- Head (back) -->
  <ellipse cx="150" cy="35" rx="22" ry="28" stroke="#8B9DC3" stroke-width="1.5" fill="#F8F9FA"/>
  <path d="M 135 50 L 135 60" stroke="#8B9DC3" stroke-width="0.5"/>
  <path d="M 165 50 L 165 60" stroke="#8B9DC3" stroke-width="0.5"/>
  
  <!-- Neck -->
  <path d="M 135 63 L 140 80 L 160 80 L 165 63" stroke="#8B9DC3" stroke-width="1.5" fill="#F8F9FA"/>
  
  <!-- Shoulders -->
  <path d="M 140 80 Q 120 85 100 95 L 95 105" stroke="#8B9DC3" stroke-width="1.5" fill="none"/>
  <path d="M 160 80 Q 180 85 200 95 L 205 105" stroke="#8B9DC3" stroke-width="1.5" fill="none"/>
  
  <!-- Back outline -->
  <path d="M 140 80 L 135 120 L 130 180 L 135 240 L 140 260" stroke="#8B9DC3" stroke-width="1.5" fill="none"/>
  <path d="M 160 80 L 165 120 L 170 180 L 165 240 L 160 260" stroke="#8B9DC3" stroke-width="1.5" fill="none"/>
  
  <!-- Spine -->
  <line x1="150" y1="80" x2="150" y2="260" stroke="#8B9DC3" stroke-width="1" stroke-dasharray="3,2"/>
  
  <!-- Shoulder blades -->
  <path d="M 135 100 Q 140 110 140 120 Q 140 130 135 135" stroke="#8B9DC3" stroke-width="1" fill="none"/>
  <path d="M 165 100 Q 160 110 160 120 Q 160 130 165 135" stroke="#8B9DC3" stroke-width="1" fill="none"/>
  
  <!-- Lower back detail -->
  <path d="M 140 200 Q 145 205 150 205 Q 155 205 160 200" stroke="#8B9DC3" stroke-width="0.5" fill="none"/>
  <path d="M 140 220 Q 145 225 150 225 Q 155 225 160 220" stroke="#8B9DC3" stroke-width="0.5" fill="none"/>
  
  <!-- Pelvis -->
  <path d="M 140 260 Q 145 270 150 270 Q 155 270 160 260" stroke="#8B9DC3" stroke-width="1.5" fill="none"/>
  <line x1="140" y1="260" x2="140" y2="280" stroke="#8B9DC3" stroke-width="1.5"/>
  <line x1="160" y1="260" x2="160" y2="280" stroke="#8B9DC3" stroke-width="1.5"/>
  <path d="M 135 250 Q 140 255 145 255" stroke="#8B9DC3" stroke-width="0.5" fill="none"/>
  <path d="M 165 250 Q 160 255 155 255" stroke="#8B9DC3" stroke-width="0.5" fill="none"/>
  
  <!-- Arms - Left -->
  <path d="M 95 105 L 85 150 L 80 200 L 78 250" stroke="#8B9DC3" stroke-width="1.5" fill="none"/>
  <path d="M 100 105 L 92 150 L 88 200 L 86 250" stroke="#8B9DC3" stroke-width="1.5" fill="none"/>
  
  <!-- Left elbow -->
  <ellipse cx="82" cy="200" rx="4" ry="6" stroke="#8B9DC3" stroke-width="0.5" fill="none"/>
  
  <!-- Left forearm and hand -->
  <path d="M 78 250 L 75 280 L 73 300" stroke="#8B9DC3" stroke-width="1.5" fill="none"/>
  <path d="M 86 250 L 83 280 L 81 300" stroke="#8B9DC3" stroke-width="1.5" fill="none"/>
  <ellipse cx="77" cy="310" rx="6" ry="12" stroke="#8B9DC3" stroke-width="1.5" fill="#F8F9FA"/>
  
  <!-- Arms - Right -->
  <path d="M 205 105 L 215 150 L 220 200 L 222 250" stroke="#8B9DC3" stroke-width="1.5" fill="none"/>
  <path d="M 200 105 L 208 150 L 212 200 L 214 250" stroke="#8B9DC3" stroke-width="1.5" fill="none"/>
  
  <!-- Right elbow -->
  <ellipse cx="218" cy="200" rx="4" ry="6" stroke="#8B9DC3" stroke-width="0.5" fill="none"/>
  
  <!-- Right forearm and hand -->
  <path d="M 222 250 L 225 280 L 227 300" stroke="#8B9DC3" stroke-width="1.5" fill="none"/>
  <path d="M 214 250 L 217 280 L 219 300" stroke="#8B9DC3" stroke-width="1.5" fill="none"/>
  <ellipse cx="223" cy="310" rx="6" ry="12" stroke="#8B9DC3" stroke-width="1.5" fill="#F8F9FA"/>
  
  <!-- Legs - Left -->
  <path d="M 140 280 L 138 350 L 136 420 L 135 490" stroke="#8B9DC3" stroke-width="1.5" fill="none"/>
  <path d="M 145 280 L 144 350 L 143 420 L 142 490" stroke="#8B9DC3" stroke-width="1.5" fill="none"/>
  
  <!-- Left calf -->
  <path d="M 136 420 Q 133 450 136 480" stroke="#8B9DC3" stroke-width="0.5" fill="none"/>
  <path d="M 143 420 Q 146 450 143 480" stroke="#8B9DC3" stroke-width="0.5" fill="none"/>
  
  <!-- Left heel -->
  <path d="M 135 490 L 133 510 L 130 520 Q 128 525 130 528 L 145 528 Q 142 525 140 520 L 138 510 L 142 490" stroke="#8B9DC3" stroke-width="1.5" fill="#F8F9FA"/>
  <ellipse cx="137" cy="515" rx="4" ry="6" stroke="#8B9DC3" stroke-width="0.5" fill="none"/>
  
  <!-- Legs - Right -->
  <path d="M 160 280 L 162 350 L 164 420 L 165 490" stroke="#8B9DC3" stroke-width="1.5" fill="none"/>
  <path d="M 155 280 L 156 350 L 157 420 L 158 490" stroke="#8B9DC3" stroke-width="1.5" fill="none"/>
  
  <!-- Right calf -->
  <path d="M 164 420 Q 167 450 164 480" stroke="#8B9DC3" stroke-width="0.5" fill="none"/>
  <path d="M 157 420 Q 154 450 157 480" stroke="#8B9DC3" stroke-width="0.5" fill="none"/>
  
  <!-- Right heel -->
  <path d="M 165 490 L 167 510 L 170 520 Q 172 525 170 528 L 155 528 Q 158 525 160 520 L 162 510 L 158 490" stroke="#8B9DC3" stroke-width="1.5" fill="#F8F9FA"/>
  <ellipse cx="163" cy="515" rx="4" ry="6" stroke="#8B9DC3" stroke-width="0.5" fill="none"/>
</svg>
